<svg xmlns="http://www.w3.org/2000/svg" viewBox="0 0 294.78 55.06" role="img" aria-label="Begeister">
  <g fill="none" stroke="currentColor" stroke-width="1.5" stroke-miterlimit="10">
    <line x1="27.1" y1="6.47" x2="27.1" y2="45.97"/>
    <line x1="10" y1="16.34" x2="44.21" y2="36.09"/>
    <line x1="10" y1="36.09" x2="44.21" y2="16.34"/>
  </g>
  <g fill="currentColor">
    <path d="M54.76,42.38V10.1h1.53v32.27h-1.53ZM55.53,42.38v-1.38h11.22c2.61,0,4.7-.68,6.28-2.05,1.58-1.37,2.36-3.18,2.36-5.44,0-1.46-.34-2.75-1.03-3.87-.68-1.11-1.63-1.99-2.84-2.63-1.21-.64-2.61-.95-4.2-.95h-11.79v-1.29h11.55c2.1,0,3.75-.6,4.96-1.79,1.21-1.19,1.81-2.81,1.81-4.85s-.69-3.69-2.05-4.87c-1.37-1.18-3.2-1.77-5.49-1.77h-10.79v-1.38h10.79c1.85,0,3.44.32,4.8.96,1.35.64,2.4,1.54,3.15,2.72.75,1.18,1.12,2.59,1.12,4.25,0,1.91-.48,3.53-1.43,4.85-.95,1.32-2.34,2.25-4.15,2.79l.24-.57c2.16.51,3.86,1.51,5.08,3.01,1.22,1.5,1.84,3.29,1.84,5.39,0,1.78-.43,3.34-1.29,4.68s-2.07,2.37-3.63,3.1c-1.56.73-3.41,1.1-5.54,1.1h-10.98Z"/>
    <path d="M83.74,42.38V10.1h1.53v32.27h-1.53ZM84.6,11.49v-1.38h15.62v1.38h-15.62ZM84.6,26.48v-1.34h15.48v1.34h-15.48ZM84.6,42.38v-1.38h15.91v1.38h-15.91Z"/>
    <path d="M122.66,42.81c-2.36,0-4.53-.41-6.52-1.24-1.99-.83-3.71-1.98-5.16-3.46s-2.57-3.23-3.37-5.25c-.8-2.02-1.19-4.23-1.19-6.61s.41-4.59,1.22-6.61c.81-2.02,1.95-3.79,3.41-5.3,1.46-1.51,3.18-2.68,5.16-3.51,1.97-.83,4.14-1.24,6.49-1.24,2.64,0,5.04.53,7.21,1.6,2.16,1.07,3.92,2.59,5.25,4.56l-1.15,1.15c-1.27-1.88-2.87-3.32-4.8-4.32-1.93-1-4.1-1.5-6.52-1.5-2.83,0-5.36.66-7.57,1.98-2.21,1.32-3.95,3.13-5.2,5.42s-1.89,4.9-1.89,7.83.62,5.48,1.86,7.76c1.24,2.28,2.95,4.06,5.13,5.35,2.18,1.29,4.69,1.93,7.52,1.93,2.67,0,5-.57,6.97-1.72,1.97-1.15,3.51-2.79,4.61-4.94,1.1-2.15,1.66-4.7,1.69-7.66l.57.48h-14.42v-1.38h15.42v.29c0,3.44-.6,6.38-1.81,8.83-1.21,2.45-2.92,4.33-5.13,5.63-2.21,1.31-4.81,1.96-7.81,1.96Z"/>
    <path d="M144,42.38V10.1h1.53v32.27h-1.53ZM144.86,11.49v-1.38h16.62v1.38h-16.62ZM144.86,26.48v-1.34h15.48v1.34h-15.48ZM144.86,42.38v-1.38h16.91v1.38h-16.91Z"/>
    <path d="M171.11,42.38V10.1h1.53v32.27h-1.53Z"/>
    <path d="M189.35,42.86c-2.48,0-4.65-.48-6.49-1.46-1.85-.97-3.42-2.3-4.73-3.99l1.1-1.05c1.34,1.81,2.85,3.11,4.54,3.89,1.69.78,3.58,1.17,5.68,1.17,2.36,0,4.28-.57,5.78-1.72,1.5-1.15,2.24-2.74,2.24-4.77,0-1.53-.31-2.78-.93-3.75-.62-.97-1.44-1.76-2.46-2.36-1.02-.6-2.13-1.14-3.34-1.6-1.21-.46-2.42-.92-3.63-1.38-1.21-.46-2.32-1.03-3.34-1.72-1.02-.68-1.84-1.56-2.46-2.63-.62-1.07-.93-2.43-.93-4.08,0-1.56.37-2.92,1.12-4.08.75-1.16,1.79-2.07,3.13-2.72,1.34-.65,2.9-.98,4.68-.98,2.07,0,3.91.4,5.54,1.19,1.62.8,3.01,1.94,4.15,3.44l-1.1,1.05c-1.08-1.37-2.32-2.42-3.7-3.15-1.38-.73-3.02-1.1-4.89-1.1-2.17,0-3.93.56-5.3,1.67-1.37,1.11-2.05,2.66-2.05,4.63,0,1.43.31,2.6.93,3.51.62.91,1.44,1.66,2.46,2.24s2.13,1.1,3.34,1.53c1.21.43,2.42.88,3.63,1.36,1.21.48,2.32,1.07,3.34,1.77,1.02.7,1.84,1.6,2.46,2.7.62,1.1.93,2.49.93,4.18,0,2.71-.87,4.75-2.6,6.13-1.73,1.38-4.1,2.08-7.09,2.08Z"/>
    <path d="M203.57,11.49v-1.38h22.07v1.38h-22.07ZM213.84,42.38V11.01h1.53v31.37h-1.53Z"/>
    <path d="M233.75,42.38V10.1h1.53v32.27h-1.53ZM234.61,11.49v-1.38h16.62v1.38h-16.62ZM234.61,26.48v-1.34h15.48v1.34h-15.48ZM234.61,42.38v-1.38h16.91v1.38h-16.91Z"/>
    <path d="M259.87,42.38V10.1h1.53v32.27h-1.53ZM260.63,27.2v-1.38h9.6c2.64,0,4.65-.66,6.01-1.98,1.37-1.32,2.05-3.05,2.05-5.18s-.69-3.9-2.05-5.2c-1.37-1.3-3.37-1.96-6.01-1.96h-9.6v-1.38h9.36c2.13,0,3.93.36,5.4,1.07,1.46.72,2.58,1.72,3.34,3.01.76,1.29,1.15,2.78,1.15,4.46s-.38,3.17-1.15,4.46c-.76,1.29-1.88,2.29-3.34,3.01-1.46.72-3.26,1.07-5.4,1.07h-9.36ZM277.25,42.38l-9.94-15.85,1.67-.29,10.32,16.14h-2.05Z"/>
  </g>
</svg>
